<?xml version="1.0" standalone="no"?>
<!DOCTYPE svg PUBLIC "-//W3C//DTD SVG 20010904//EN"
 "http://www.w3.org/TR/2001/REC-SVG-20010904/DTD/svg10.dtd">
<svg version="1.0" xmlns="http://www.w3.org/2000/svg"
 width="740.000000pt" height="740.000000pt" viewBox="0 0 740.000000 740.000000"
 preserveAspectRatio="xMidYMid meet">

<g transform="translate(0.000000,740.000000) scale(0.100000,-0.100000)"
fill="#000000" stroke="none">
<path d="M1087 5624 c-4 -4 -7 -180 -7 -391 l0 -383 385 0 385 0 0 388 0 387
-378 3 c-208 2 -381 0 -385 -4z m201 -166 c3 -15 -4 -18 -37 -18 -35 0 -41 3
-41 21 0 17 5 20 37 17 27 -2 39 -8 41 -20z m392 2 c0 -6 -67 -10 -180 -10
-113 0 -180 4 -180 10 0 6 67 10 180 10 113 0 180 -4 180 -10z m-352 -112 c3
-16 -5 -18 -57 -18 -55 0 -61 2 -61 20 0 19 5 21 57 18 46 -2 59 -7 61 -20z
m392 -4 c0 -11 -5 -14 -16 -10 -9 3 -90 6 -180 6 -103 0 -164 4 -164 10 0 6
67 10 180 10 159 0 180 -2 180 -16z m-460 -104 c0 -18 -7 -20 -60 -20 -53 0
-60 2 -60 20 0 18 7 20 60 20 53 0 60 -2 60 -20z m530 0 c0 -6 -88 -10 -245
-10 -157 0 -245 4 -245 10 0 6 88 10 245 10 157 0 245 -4 245 -10z m-502 -97
c-2 -13 -14 -19 -41 -21 -32 -3 -37 0 -37 17 0 18 6 21 41 21 33 0 40 -3 37
-17z m392 -3 c0 -6 -67 -10 -180 -10 -113 0 -180 4 -180 10 0 6 67 10 180 10
113 0 180 -4 180 -10z m-355 -110 c0 -11 -14 -16 -57 -18 -53 -3 -58 -1 -58
18 0 19 5 21 58 18 43 -2 57 -7 57 -18z m373 14 c59 -16 6 -24 -158 -24 -153
0 -180 2 -180 15 0 13 24 15 158 15 86 0 167 -3 180 -6z"/>
<path d="M2400 4990 l0 -40 -213 0 -214 0 -2 -67 c-2 -76 -16 -104 -64 -133
-28 -17 -51 -20 -174 -20 l-143 0 0 -115 0 -115 138 0 c111 0 144 -3 171 -18
72 -36 69 -20 73 -487 3 -399 2 -421 -16 -448 -34 -50 -61 -57 -221 -57 l-145
0 0 -485 0 -485 140 0 140 0 0 318 c0 285 2 320 18 343 9 14 23 24 30 22 6 -3
12 1 12 7 0 6 7 18 15 26 12 12 99 15 571 17 l556 2 39 -44 39 -44 0 -323 0
-324 930 0 930 0 0 -534 c0 -532 0 -533 22 -561 43 -55 47 -55 563 -55 516 0
520 0 563 55 13 16 22 42 22 61 l0 34 -515 0 -515 0 0 36 c0 37 28 74 57 74 7
0 13 6 13 13 0 16 42 37 74 37 13 0 30 9 37 19 10 14 30 21 73 25 33 3 83 12
110 20 68 18 180 43 236 52 25 3 50 10 55 14 6 4 32 11 60 15 27 4 62 16 77
27 37 26 81 102 74 126 -4 11 2 29 13 44 11 14 17 28 14 32 -3 3 -2 6 4 6 6 0
14 43 18 105 4 58 10 105 15 105 4 0 10 24 14 54 6 58 31 116 39 94 2 -7 8 15
12 50 4 34 11 62 16 62 4 0 10 -35 12 -77 1 -43 4 133 5 390 2 518 3 510 -62
541 -26 12 -65 16 -170 16 l-136 0 0 435 0 435 -282 0 c-405 0 -380 -26 -376
390 l3 290 -147 0 -148 0 0 -686 c0 -768 4 -725 -72 -763 -36 -18 -82 -18
-1225 -14 -801 3 -1197 8 -1216 15 -15 6 -39 24 -52 40 l-25 30 2 561 c1 309
5 501 8 427 l6 -135 4 130 c3 123 4 126 10 55 5 -55 7 -64 10 -35 l3 40 6 -40
7 -40 6 50 c5 36 2 56 -8 72 -19 30 -18 33 7 28 30 -6 36 -14 19 -26 -12 -7
-13 -11 -2 -18 8 -4 13 -11 13 -15 -1 -3 -1 -31 -1 -61 0 -42 4 -55 15 -55 13
0 15 -58 17 -442 l3 -443 1168 -3 1167 -2 -2 702 -3 703 -1162 3 -1163 2 0
-40z m488 -167 c-3 -16 -17 -18 -123 -18 -106 0 -120 2 -123 18 -3 15 8 17
123 17 115 0 126 -2 123 -17z m572 -3 c0 -20 -5 -20 -247 -18 -227 3 -248 4
-251 21 -3 16 14 17 247 17 245 0 251 0 251 -20z m-470 -130 c0 -19 -7 -20
-119 -20 -69 0 -122 4 -126 10 -15 24 12 30 126 30 112 0 119 -1 119 -20z
m1490 0 c0 -7 -242 -10 -705 -10 -463 0 -705 3 -705 10 0 7 242 10 705 10 463
0 705 -3 705 -10z m-1490 -120 c0 -19 -7 -20 -125 -20 -98 0 -125 3 -125 13 0
25 12 27 132 27 111 0 118 -1 118 -20z m1490 -5 c0 -13 -85 -15 -705 -15 -620
0 -705 2 -705 15 0 13 85 15 705 15 620 0 705 -2 705 -15z m-1490 -125 c0 -20
-5 -20 -122 -18 -108 3 -123 5 -126 21 -3 15 8 17 122 17 120 0 126 -1 126
-20z m801 10 c453 0 689 -3 689 -10 0 -7 -242 -10 -705 -10 -641 0 -705 1
-705 16 0 11 5 14 16 10 9 -3 326 -6 705 -6z m-801 -130 c0 -19 -7 -20 -119
-20 -114 0 -141 6 -126 30 4 6 57 10 126 10 112 0 119 -1 119 -20z m1490 0 c0
-7 -242 -10 -705 -10 -463 0 -705 3 -705 10 0 7 242 10 705 10 463 0 705 -3
705 -10z m-1590 -130 c0 -19 -7 -20 -125 -20 -118 0 -125 1 -125 20 0 19 7 20
125 20 118 0 125 -1 125 -20z m570 0 c0 -19 -7 -20 -250 -20 -243 0 -250 1
-250 20 0 19 7 20 250 20 243 0 250 -1 250 -20z m1680 -36 c0 -29 63 -44 200
-47 91 -2 61 -3 -92 -5 -173 -1 -228 1 -232 11 -3 6 -3 -1 1 -18 3 -16 8 -33
10 -37 2 -5 105 -8 229 -8 l224 0 0 28 c0 25 3 27 46 28 25 1 49 5 52 11 4 6
19 12 33 15 l26 5 7 -111 c3 -61 6 -227 6 -369 l0 -259 -277 4 -278 3 -34 -24
c-58 -41 -61 -61 -61 -356 l0 -265 -770 0 c-423 0 -770 3 -770 8 1 11 24 36
45 48 11 6 22 24 23 40 5 40 16 51 63 57 46 6 78 30 80 61 2 20 2 20 6 -1 3
-16 11 -23 28 -23 13 0 31 -3 41 -7 11 -4 15 -2 11 4 -4 6 -20 13 -37 16 -20
5 -30 12 -29 24 0 10 3 13 5 6 4 -8 55 -12 170 -13 l164 -1 0 123 c1 89 4 128
14 141 14 18 14 17 21 -2 8 -28 45 -28 45 -1 0 28 13 25 33 -9 13 -23 17 -53
17 -142 l0 -112 107 6 c58 4 126 7 150 7 l43 0 0 154 0 154 43 8 c23 4 58 9
77 11 19 2 60 6 90 9 30 4 64 12 75 20 11 8 29 14 40 14 24 1 74 69 77 105 1
13 5 22 9 19 8 -4 23 26 20 40 -1 5 5 26 14 48 8 21 15 62 15 91 0 29 5 68 10
87 6 19 15 112 21 205 8 150 12 172 29 187 11 9 20 22 20 28 0 9 16 11 54 8
46 -4 53 -2 48 11 -4 13 -1 12 16 -3 12 -11 22 -25 22 -32z m-1160 -94 c0 -20
-7 -20 -460 -20 -377 0 -460 2 -460 13 0 8 3 17 7 20 3 4 210 7 460 7 446 0
453 0 453 -20z m518 -2 c3 -17 -13 -18 -227 -18 -186 0 -231 3 -231 13 0 8 3
17 7 21 4 3 106 5 227 4 201 -3 221 -5 224 -20z m-518 -120 l0 -23 -457 3
c-252 2 -460 5 -462 7 -2 2 -1 11 2 20 6 13 61 15 462 15 l455 0 0 -22z m518
-3 c5 -24 -36 -27 -250 -22 -173 4 -203 7 -206 20 -4 22 8 23 243 20 175 -3
211 -5 213 -18z m-1508 0 c0 -18 -20 -20 -21 -2 0 10 -2 10 -6 0 -7 -19 -53
-16 -53 2 0 11 11 15 40 15 29 0 40 -4 40 -15z m-2 -122 c3 -10 -25 -13 -117
-13 -108 0 -145 8 -108 24 26 11 220 1 225 -11z m992 -3 c0 -20 -5 -20 -457
-18 -427 3 -458 4 -461 21 -3 16 24 17 457 17 455 0 461 0 461 -20z m520 0 c0
-20 -5 -20 -227 -18 -208 3 -228 5 -231 21 -3 16 13 17 227 17 225 0 231 -1
231 -20z m-783 -762 c-2 -24 -4 -5 -4 42 0 47 2 66 4 43 2 -24 2 -62 0 -85z
m2255 -259 c56 -40 58 -57 58 -419 0 -184 -4 -330 -9 -330 -5 0 -11 -9 -14
-19 -3 -11 -20 -29 -38 -40 -32 -20 -49 -21 -367 -21 -364 0 -370 1 -411 59
-20 28 -21 41 -21 364 0 331 0 334 23 368 39 59 40 59 410 59 331 0 340 -1
369 -21z"/>
<path d="M4992 4055 c0 -16 2 -22 5 -12 2 9 2 23 0 30 -3 6 -5 -1 -5 -18z"/>
<path d="M5033 3964 c-7 -3 -9 -12 -6 -20 4 -12 44 -14 229 -14 217 0 224 1
224 20 0 19 -6 20 -217 19 -120 0 -223 -3 -230 -5z"/>
<path d="M5027 3844 c-3 -3 -3 -12 0 -20 8 -21 453 -21 453 0 0 7 -10 16 -22
20 -30 8 -423 8 -431 0z"/>
<path d="M4698 3313 c6 -2 18 -2 25 0 6 3 1 5 -13 5 -14 0 -19 -2 -12 -5z"/>
<path d="M4592 3285 c-4 -5 -6 -74 -4 -152 l3 -143 150 0 150 0 -3 148 -3 147
-143 5 c-91 3 -146 1 -150 -5z"/>
<path d="M5213 4943 c15 -2 39 -2 55 0 15 2 2 4 -28 4 -30 0 -43 -2 -27 -4z"/>
<path d="M5382 4943 c37 -2 100 -2 140 0 40 1 10 3 -67 3 -77 0 -110 -1 -73
-3z"/>
<path d="M2343 4560 c0 -30 2 -43 4 -27 2 15 2 39 0 55 -2 15 -4 2 -4 -28z"/>
<path d="M1593 4000 c0 -25 2 -35 4 -22 2 12 2 32 0 45 -2 12 -4 2 -4 -23z"/>
<path d="M2267 2856 c-45 -40 -47 -44 -30 -57 16 -12 17 -12 6 2 -15 19 -8 29
20 29 11 0 17 3 14 7 -4 4 5 19 20 35 39 41 25 34 -30 -16z"/>
<path d="M2113 2773 c17 -20 17 -20 -8 -20 -36 0 -40 -8 -16 -32 15 -15 29
-19 44 -16 15 4 28 1 36 -9 7 -8 33 -25 57 -36 24 -12 44 -25 44 -30 0 -4 8
-11 18 -14 9 -3 -2 12 -26 34 -24 23 -47 38 -54 34 -6 -4 -8 -3 -5 3 4 6 -19
32 -51 59 -31 26 -49 39 -39 27z m21 -52 c-2 -3 -12 3 -22 13 -16 17 -16 18 5
5 12 -7 20 -15 17 -18z"/>
</g>
</svg>
